<svg fill="none" xmlns="http://www.w3.org/2000/svg" viewBox="0 0 26 25"><g clip-path="url(#a)"><path d="M25.771 14.164c.077-.553.108-1.105.108-1.673 0-6.906-5.602-12.508-12.508-12.508C6.481 0 .88 5.6.88 12.506c0 .522.03 1.029.092 1.535 3.33-1.796 7.612-2.885 12.277-2.885 4.789 0 9.162 1.136 12.524 3.008Z" fill="url(#b)"/><path d="M13.387 25c6.338 0 11.571-4.727 12.384-10.835-3.36-1.872-7.734-3.008-12.507-3.008-4.666 0-8.947 1.09-12.278 2.885A12.481 12.481 0 0 0 13.386 25Z" fill="url(#c)"/><path d="M13.94 15.761 17.33 9.9a.3.3 0 0 0-.26-.445h-1.305a.291.291 0 0 1-.292-.292V6.338a.291.291 0 0 0-.292-.291h-2.977a.291.291 0 0 0-.291.291v2.809a.291.291 0 0 1-.292.291h-1.304a.3.3 0 0 0-.261.445l3.391 5.863c.092.215.384.215.491.015Z" fill="#fff"/><path d="M17.576 15.055v2.041H9.182v-2.04H7.969V18.476h10.82V15.055h-1.213Z" fill="#fff"/></g><defs><linearGradient id="b" x1="13.381" y1="14.166" x2="13.381" y2="-.001" gradientUnits="userSpaceOnUse"><stop stop-color="#C4161C"/><stop offset=".284" stop-color="#C5181E"/><stop offset=".47" stop-color="#CA2123"/><stop offset=".628" stop-color="#D1302D"/><stop offset=".771" stop-color="#DB453A"/><stop offset=".901" stop-color="#E7604C"/><stop offset="1" stop-color="#F47A5C"/></linearGradient><linearGradient id="c" x1="13.373" y1="25.004" x2="13.373" y2="11.156" gradientUnits="userSpaceOnUse"><stop stop-color="#C4161C"/><stop offset=".283" stop-color="#C0151B"/><stop offset=".549" stop-color="#B51117"/><stop offset=".808" stop-color="#A20C10"/><stop offset=".857" stop-color="#9E0B0F"/></linearGradient><clipPath id="a"><path fill="#fff" transform="translate(.879)" d="M0 0h25v25H0z"/></clipPath></defs></svg>